<?xml version="1.0" standalone="no"?><!DOCTYPE svg PUBLIC "-//W3C//DTD SVG 1.1//EN" "http://www.w3.org/Graphics/SVG/1.1/DTD/svg11.dtd"><svg t="1744801720852" class="icon" viewBox="0 0 1024 1024" version="1.1" xmlns="http://www.w3.org/2000/svg" p-id="1580" xmlns:xlink="http://www.w3.org/1999/xlink" width="200" height="200"><path d="M768.605 587.21a181.392 181.392 0 0 1 177.91 216.783 181.38 181.38 0 0 1-49.644 92.875 181.398 181.398 0 0 1-197.684 39.324A181.391 181.391 0 0 1 587.21 768.605c0-17.673 14.326-32 32-32 17.496 0 31.712 14.042 31.995 31.47l0.004 0.53a117.39 117.39 0 0 0 72.47 108.46A117.397 117.397 0 0 0 877.064 723.68a117.391 117.391 0 0 0-107.567-72.468l-0.893-0.003c-17.673 0-32-14.327-32-32 0-17.673 14.327-32 32-32z m-512.21 0c17.673 0 32 14.327 32 32 0 17.497-14.042 31.713-31.471 31.996l-0.53 0.004a117.388 117.388 0 0 0-108.458 72.47 117.394 117.394 0 0 0 85.557 160.064 117.395 117.395 0 0 0 140.293-114.246l0.003-0.893c0-17.673 14.327-32 32-32 17.673 0 32 14.327 32 32a181.392 181.392 0 0 1-216.782 177.91 181.389 181.389 0 0 1-92.877-49.645 181.393 181.393 0 0 1 128.264-309.66z m534.837-353.443c12.372 12.372 12.496 32.354 0.372 44.878l-0.372 0.377-140.022 140.02v186.913l140.022 140.023c12.497 12.496 12.497 32.758 0 45.254-12.371 12.372-32.353 12.496-44.877 0.372l-0.377-0.372L605.955 651.21H419.043l-140.02 140.022c-12.498 12.497-32.759 12.497-45.256 0-12.372-12.371-12.495-32.353-0.37-44.877l0.37-0.377L373.79 605.954v-186.91L233.767 279.022c-12.497-12.497-12.497-32.758 0-45.255 12.248-12.248 31.955-12.492 44.5-0.731l0.378 0.36 0.377 0.371L419.044 373.79h186.91l140.024-140.022c12.496-12.497 32.758-12.497 45.254 0z m12.76-155.281a181.39 181.39 0 0 1 132.2 247.328A181.391 181.391 0 0 1 768.605 437.79c-17.673 0-32-14.328-32-32 0-17.497 14.042-31.714 31.47-31.996l0.53-0.005a117.39 117.39 0 0 0 108.46-72.469 117.397 117.397 0 0 0-153.386-153.384 117.396 117.396 0 0 0-72.465 107.566l-0.004 0.893c0 17.673-14.327 32-32 32-17.673 0-32-14.327-32-32A181.387 181.387 0 0 1 699.188 88.808a181.393 181.393 0 0 1 104.804-10.322z m-478.18 10.322a181.396 181.396 0 0 1 111.977 167.587c0 17.673-14.327 32-32 32-17.496 0-31.713-14.042-31.995-31.471l-0.005-0.53a117.387 117.387 0 0 0-72.469-108.458 117.394 117.394 0 1 0-45.818 225.85l0.893 0.003c17.673 0 32 14.327 32 32 0 17.673-14.327 32-32 32A181.388 181.388 0 0 1 88.808 325.812 181.393 181.393 0 0 1 221.007 78.486c35.186-7 71.659-3.407 104.805 10.322z" p-id="1581"></path></svg>